<?xml version="1.0"?>
<!-- Generated by SVGo and Plotinum VG -->
<svg width="566.93pt" height="566.93pt" viewBox="0 0 566.93 566.93"
	xmlns="http://www.w3.org/2000/svg"
	xmlns:xlink="http://www.w3.org/1999/xlink">
<g transform="scale(1, -1) translate(0, -566.93)">
<path d="M0,0L566.93,0L566.93,566.93L0,566.93Z"  />
<path d="M283.46,283.46M283.46,283.46L283.46,850.39M283.46,850.39L283.46,850.39M283.46,283.46M283.46,283.46L283.46,850.39M283.46,850.39L-283.46,283.46M283.46,283.46M283.46,283.46L-283.46,283.46M-283.46,283.46L283.46,-283.46M283.46,283.46M283.46,283.46L283.46,-283.46M283.46,-283.46L850.39,283.46M283.46,283.46M283.46,283.46L850.39,283.46M850.39,283.46L283.46,850.39M283.46,283.46M283.46,283.46M-78.153,687.83L-48.282,728.22M283.46,283.46M197.01,798.74L197.01,798.74M283.46,283.46M197.01,798.74L266.68,815.09M283.46,283.46M197.01,798.74L94.329,733.45M283.46,283.46M266.68,815.09L266.68,815.09M283.46,283.46M266.68,815.09L-170.18,368.18M283.46,283.46M266.68,-248.16L266.68,815.09M283.46,283.46M94.329,733.45L-48.282,728.22M283.46,283.46M-126.77,98.983L-126.77,467.95M283.46,283.46M-170.18,368.18L-135.78,405.34M283.46,283.46M-48.282,728.22L266.68,815.09M283.46,283.46M283.46,283.46M-78.153,-120.9L-48.282,-161.29M283.46,283.46M197.01,-231.81L197.01,-231.81M283.46,283.46M197.01,-231.81L266.68,-248.16M283.46,283.46M197.01,-231.81L94.329,-166.52M283.46,283.46M266.68,-248.16L266.68,-248.16M283.46,283.46M266.68,-248.16L-170.18,198.74M283.46,283.46M300.24,-248.16L266.68,-248.16M283.46,283.46M94.329,-166.52L-48.282,-161.29M283.46,283.46M693.7,98.983L-126.77,98.983M283.46,283.46M-170.18,198.74L-135.78,161.59M283.46,283.46M-48.282,-161.29L266.68,-248.16M283.46,283.46M283.46,283.46M645.08,-120.9L615.21,-161.29M283.46,283.46M369.92,-231.81L369.92,-231.81M283.46,283.46M369.92,-231.81L300.24,-248.16M283.46,283.46M369.92,-231.81L472.6,-166.52M283.46,283.46M300.24,-248.16L300.24,-248.16M283.46,283.46M300.24,-248.16L737.11,198.74M283.46,283.46M300.24,815.09L300.24,-248.16M283.46,283.46M472.6,-166.52L615.21,-161.29M283.46,283.46M693.7,467.95L693.7,98.983M283.46,283.46M737.11,198.74L702.71,161.59M283.46,283.46M615.21,-161.29L300.24,-248.16M283.46,283.46M283.46,283.46M645.08,687.83L615.21,728.22M283.46,283.46M369.92,798.74L369.92,798.74M283.46,283.46M369.92,798.74L300.24,815.09M283.46,283.46M369.92,798.74L472.6,733.45M283.46,283.46M300.24,815.09L300.24,815.09M283.46,283.46M300.24,815.09L737.11,368.18M283.46,283.46M266.68,815.09L300.24,815.09M283.46,283.46M472.6,733.45L615.21,728.22M283.46,283.46M-126.77,467.95L693.7,467.95M283.46,283.46M737.11,368.18L702.71,405.34M283.46,283.46M615.21,728.22L300.24,815.09M283.46,283.46M283.46,283.46" style="fill:none;stroke:#469951;stroke-opacity:0.0038911;stroke-width:14.173" />
<path d="M283.46,283.46M283.46,283.46L283.46,765.35M283.46,765.35L283.46,765.35M283.46,283.46M283.46,283.46L283.46,765.35M283.46,765.35L-174.84,432.38M283.46,283.46M283.46,283.46L-174.84,432.38M-174.84,432.38L0.21687,-106.39M283.46,283.46M283.46,283.46L0.21687,-106.39M0.21687,-106.39L566.71,-106.39M283.46,283.46M283.46,283.46L566.71,-106.39M566.71,-106.39L741.77,432.38M283.46,283.46M283.46,283.46L741.77,432.38M741.77,432.38L283.46,765.35M283.46,283.46M283.46,283.46M195.95,648.59L195.95,648.59M283.46,283.46M195.95,648.59L-4.6179,592.33M283.46,283.46M195.95,648.59L63.156,655.3M283.46,283.46M195.95,648.59L115.87,590.49M283.46,283.46M-90.831,313.06L195.95,648.59M283.46,283.46M-4.6179,592.33L-4.6179,592.33M283.46,283.46M-4.6179,592.33L63.156,655.3M283.46,283.46M-4.6179,592.33L202.54,689.65M283.46,283.46M-138.25,188.84L63.156,655.3M283.46,283.46M202.54,689.65L-110.5,553.99M283.46,283.46M283.46,283.46M-90.831,313.06L-90.831,313.06M283.46,283.46M-90.831,313.06L-99.305,104.93M283.46,283.46M-90.831,313.06L-138.25,188.84M283.46,283.46M-90.831,313.06L-60.323,218.95M283.46,283.46M139.65,-63.367L-90.831,313.06M283.46,283.46M-99.305,104.93L-99.305,104.93M283.46,283.46M-99.305,104.93L-138.25,188.84M283.46,283.46M-99.305,104.93L-127.85,332.01M283.46,283.46M243.14,-146.85L-138.25,188.84M283.46,283.46M-127.85,332.01L-95.557,-7.6206M283.46,283.46M283.46,283.46M139.65,-63.367L139.65,-63.367M283.46,283.46M139.65,-63.367L334.98,-135.74M283.46,283.46M139.65,-63.367L243.14,-146.85M283.46,283.46M139.65,-63.367L238.58,-63.432M283.46,283.46M568.88,39.516L139.65,-63.367M283.46,283.46M334.98,-135.74L334.98,-135.74M283.46,283.46M334.98,-135.74L243.14,-146.85M283.46,283.46M334.98,-135.74L110.19,-92.711M283.46,283.46M680.26,112.14L243.14,-146.85M283.46,283.46M110.19,-92.711L443.18,-166.96M283.46,283.46M283.46,283.46M568.88,39.516L568.88,39.516M283.46,283.46M568.88,39.516L698.07,202.92M283.46,283.46M568.88,39.516L680.26,112.14M283.46,283.46M568.88,39.516L599.51,133.58M283.46,283.46M603.67,479.53L568.88,39.516M283.46,283.46M698.07,202.92L698.07,202.92M283.46,283.46M698.07,202.92L680.26,112.14M283.46,283.46M698.07,202.92L587.68,2.4252M283.46,283.46M569.02,607.89L680.26,112.14M283.46,283.46M587.68,2.4252L761.2,296.17M283.46,283.46M283.46,283.46M603.67,479.53L603.67,479.53M283.46,283.46M603.67,479.53L488.19,652.89M283.46,283.46M603.67,479.53L569.02,607.89M283.46,283.46M603.67,479.53L523.67,537.73M283.46,283.46M195.95,648.59L603.67,479.53M283.46,283.46M488.19,652.89L488.19,652.89M283.46,283.46M488.19,652.89L569.02,607.89M283.46,283.46M488.19,652.89L644.76,485.95M283.46,283.46M63.156,655.3L569.02,607.89M283.46,283.46M644.76,485.95L419,741.74M283.46,283.46M283.46,283.46" style="fill:none;stroke:#9B4476;stroke-opacity:0.0038911;stroke-width:14.173" />
<path d="M283.46,283.46M283.46,283.46L283.46,680.31M283.46,680.31L283.46,680.31M283.46,283.46M283.46,283.46L283.46,680.31M283.46,680.31L-93.963,406.1M283.46,283.46M283.46,283.46L-93.963,406.1M-93.963,406.1L50.202,-37.594M283.46,283.46M283.46,283.46L50.202,-37.594M50.202,-37.594L516.73,-37.594M283.46,283.46M283.46,283.46L516.73,-37.594M516.73,-37.594L660.89,406.1M283.46,283.46M283.46,283.46L660.89,406.1M660.89,406.1L283.46,680.31M283.46,283.46M283.46,283.46M36.904,523.95L43.623,477.45M283.46,283.46M160.36,515.97L160.36,515.97M283.46,283.46M160.36,515.97L239.04,575.96M283.46,283.46M160.36,515.97L43.623,477.45M283.46,283.46M24.296,238.23L160.36,515.97M283.46,283.46M239.04,575.96L160.36,515.97M283.46,283.46M239.04,575.96L43.623,477.45M283.46,283.46M-8.4438,331.6L239.04,575.96M283.46,283.46M283.46,283.46M-21.446,123.29L24.858,115.31M283.46,283.46M24.296,238.23L24.296,238.23M283.46,283.46M24.296,238.23L-8.4438,331.6M283.46,283.46M24.296,238.23L24.858,115.31M283.46,283.46M246.4,23.002L24.296,238.23M283.46,283.46M-8.4438,331.6L24.296,238.23M283.46,283.46M-8.4438,331.6L24.858,115.31M283.46,283.46M147.48,20.718L-8.4438,331.6M283.46,283.46M283.46,283.46M341.58,-56.02L363.48,-14.449M283.46,283.46M246.4,23.002L246.4,23.002M283.46,283.46M246.4,23.002L147.48,20.718M283.46,283.46M246.4,23.002L363.48,-14.449M283.46,283.46M519.73,167.73L246.4,23.002M283.46,283.46M147.48,20.718L246.4,23.002M283.46,283.46M147.48,20.718L363.48,-14.449M283.46,283.46M491.33,72.942L147.48,20.718M283.46,283.46M283.46,283.46M624.29,233.83L591.52,267.5M283.46,283.46M519.73,167.73L519.73,167.73M283.46,283.46M519.73,167.73L491.33,72.942M283.46,283.46M519.73,167.73L591.52,267.5M283.46,283.46M466.55,472.4L519.73,167.73M283.46,283.46M491.33,72.942L519.73,167.73M283.46,283.46M491.33,72.942L591.52,267.5M283.46,283.46M547.92,416.1L491.33,72.942M283.46,283.46M283.46,283.46M435.99,592.27L393.84,571.51M283.46,283.46M466.55,472.4L466.55,472.4M283.46,283.46M466.55,472.4L547.92,416.1M283.46,283.46M466.55,472.4L393.84,571.51M283.46,283.46M160.36,515.97L466.55,472.4M283.46,283.46M547.92,416.1L466.55,472.4M283.46,283.46M547.92,416.1L393.84,571.51M283.46,283.46M239.04,575.96L547.92,416.1M283.46,283.46M283.46,283.46" style="fill:none;stroke:#B32F9B;stroke-opacity:0.0038911;stroke-width:14.173" />
<path d="M283.46,283.46M283.46,283.46L283.46,595.28M283.46,595.28L283.46,595.28M283.46,283.46M283.46,283.46L283.46,595.28M283.46,595.28L100.19,535.72M283.46,283.46M283.46,283.46L100.19,535.72M100.19,535.72L-13.085,379.82M283.46,283.46M283.46,283.46L-13.085,379.82M-13.085,379.82L-13.085,187.11M283.46,283.46M283.46,283.46L-13.085,187.11M-13.085,187.11L100.19,31.204M283.46,283.46M283.46,283.46L100.19,31.204M100.19,31.204L283.46,-28.346M283.46,283.46M283.46,283.46L283.46,-28.346M283.46,-28.346L466.74,31.204M283.46,283.46M283.46,283.46L466.74,31.204M466.74,31.204L580.01,187.11M283.46,283.46M283.46,283.46L580.01,187.11M580.01,187.11L580.01,379.82M283.46,283.46M283.46,283.46L580.01,379.82M580.01,379.82L466.74,535.72M283.46,283.46M283.46,283.46L466.74,535.72M466.74,535.72L283.46,595.28M283.46,283.46M283.46,283.46M178.29,491.38L243.36,519.98M283.46,283.46M247.43,508.23L247.43,508.23M283.46,283.46M204.91,403.07L243.36,519.98M283.46,283.46M162.63,508.08L204.91,403.07M283.46,283.46M243.36,519.98L247.43,508.23M283.46,283.46M283.46,283.46M118.23,447.74L70.92,394.69M283.46,283.46M80.84,387.19L80.84,387.19M283.46,283.46M193.99,395.13L70.92,394.69M283.46,283.46M107.18,467.8L193.99,395.13M283.46,283.46M70.92,394.69L80.84,387.19M283.46,283.46M283.46,283.46M53.226,247.68L46.134,318.41M283.46,283.46M58.569,318.65L58.569,318.65M283.46,283.46M145.44,245.72L46.134,318.41M283.46,283.46M32.501,237.95L145.44,245.72M283.46,283.46M46.134,318.41L58.569,318.65M283.46,283.46M283.46,283.46M76.166,177.08L112,115.69M283.46,283.46M122.2,122.81L122.2,122.81M283.46,283.46M149.61,232.88L112,115.69M283.46,283.46M53.681,172.77L149.61,232.88M283.46,283.46M112,115.69L122.2,122.81M283.46,283.46M283.46,283.46M246.35,53.438L176.89,68.548M283.46,283.46M180.51,80.448L180.51,80.448M283.46,283.46M276.71,140.53L176.89,68.548M283.46,283.46M249.2,30.721L276.71,140.53M283.46,283.46M176.89,68.548L180.51,80.448M283.46,283.46M283.46,283.46M320.58,53.438L390.04,68.548M283.46,283.46M386.42,80.448L386.42,80.448M283.46,283.46M290.21,140.53L390.04,68.548M283.46,283.46M317.73,30.721L290.21,140.53M283.46,283.46M390.04,68.548L386.42,80.448M283.46,283.46M283.46,283.46M490.76,177.08L454.93,115.69M283.46,283.46M444.73,122.81L444.73,122.81M283.46,283.46M417.31,232.88L454.93,115.69M283.46,283.46M513.25,172.77L417.31,232.88M283.46,283.46M454.93,115.69L444.73,122.81M283.46,283.46M283.46,283.46M513.7,247.68L520.8,318.41M283.46,283.46M508.36,318.65L508.36,318.65M283.46,283.46M421.49,245.72L520.8,318.41M283.46,283.46M534.43,237.95L421.49,245.72M283.46,283.46M520.8,318.41L508.36,318.65M283.46,283.46M283.46,283.46M448.7,447.74L496.01,394.69M283.46,283.46M486.09,387.19L486.09,387.19M283.46,283.46M372.94,395.13L496.01,394.69M283.46,283.46M459.75,467.8L372.94,395.13M283.46,283.46M496.01,394.69L486.09,387.19M283.46,283.46M283.46,283.46M388.64,491.38L323.57,519.98M283.46,283.46M319.5,508.23L319.5,508.23M283.46,283.46M362.02,403.07L323.57,519.98M283.46,283.46M404.3,508.08L362.02,403.07M283.46,283.46M323.57,519.98L319.5,508.23M283.46,283.46M283.46,283.46" style="fill:none;stroke:#4C51D8;stroke-opacity:0.0038911;stroke-width:14.173" />
<path d="M283.46,283.46M283.46,283.46L283.46,510.24M283.46,510.24L283.46,510.24M283.46,283.46M283.46,283.46L283.46,510.24M283.46,510.24L150.17,466.93M283.46,283.46M283.46,283.46L150.17,466.93M150.17,466.93L67.792,353.54M283.46,283.46M283.46,283.46L67.792,353.54M67.792,353.54L67.792,213.39M283.46,283.46M283.46,283.46L67.792,213.39M67.792,213.39L150.17,100M283.46,283.46M283.46,283.46L150.17,100M150.17,100L283.46,56.693M283.46,283.46M283.46,283.46L283.46,56.693M283.46,56.693L416.76,100M283.46,283.46M283.46,283.46L416.76,100M416.76,100L499.14,213.39M283.46,283.46M283.46,283.46L499.14,213.39M499.14,213.39L499.14,353.54M283.46,283.46M283.46,283.46L499.14,353.54M499.14,353.54L416.76,466.93M283.46,283.46M283.46,283.46L416.76,466.93M416.76,466.93L283.46,510.24M283.46,283.46M283.46,283.46M274.73,456.88L267.32,358.69M283.46,283.46M121.24,345.36L274.73,456.88M283.46,283.46M204.15,478.88L257.77,343.35M283.46,283.46M267.32,358.69L204.15,478.88M283.46,283.46M267.32,358.69L267.32,358.69M283.46,283.46M257.77,343.35L274.73,456.88M283.46,283.46M234.45,326.41L257.77,343.35M283.46,283.46M283.46,283.46M121.24,345.36L216.91,322.06M283.46,283.46M115.84,328.75L121.24,345.36M283.46,283.46M122.13,419.28L234.45,326.41M283.46,283.46M216.91,322.06L122.13,419.28M283.46,283.46M216.91,322.06L216.91,322.06M283.46,283.46M234.45,326.41L121.24,345.36M283.46,283.46M218.57,277.53L234.45,326.41M283.46,283.46M283.46,283.46M115.84,328.75L206.93,291.36M283.46,283.46M174.47,148.3L115.84,328.75M283.46,283.46M73.109,268.42L218.57,277.53M283.46,283.46M206.93,291.36L73.109,268.42M283.46,283.46M206.93,291.36L206.93,291.36M283.46,283.46M218.57,277.53L115.84,328.75M283.46,283.46M227.47,250.12L218.57,277.53M283.46,283.46M283.46,283.46M174.47,148.3L226.19,232.09M283.46,283.46M188.6,138.04L174.47,148.3M283.46,283.46M104.44,171.99L227.47,250.12M283.46,283.46M226.19,232.09L104.44,171.99M283.46,283.46M226.19,232.09L226.19,232.09M283.46,283.46M227.47,250.12L174.47,148.3M283.46,283.46M269.05,219.91L227.47,250.12M283.46,283.46M283.46,283.46M188.6,138.04L252.31,213.12M283.46,283.46M378.33,138.04L188.6,138.04M283.46,283.46M232.77,78.756L269.05,219.91M283.46,283.46M252.31,213.12L232.77,78.756M283.46,283.46M252.31,213.12L252.31,213.12M283.46,283.46M269.05,219.91L188.6,138.04M283.46,283.46M297.87,219.91L269.05,219.91M283.46,283.46M283.46,283.46M378.33,138.04L314.62,213.12M283.46,283.46M392.46,148.3L378.33,138.04M283.46,283.46M334.16,78.756L297.87,219.91M283.46,283.46M314.62,213.12L334.16,78.756M283.46,283.46M314.62,213.12L314.62,213.12M283.46,283.46M297.87,219.91L378.33,138.04M283.46,283.46M339.46,250.12L297.87,219.91M283.46,283.46M283.46,283.46M392.46,148.3L340.74,232.09M283.46,283.46M451.09,328.75L392.46,148.3M283.46,283.46M462.49,171.99L339.46,250.12M283.46,283.46M340.74,232.09L462.49,171.99M283.46,283.46M340.74,232.09L340.74,232.09M283.46,283.46M339.46,250.12L392.46,148.3M283.46,283.46M348.36,277.53L339.46,250.12M283.46,283.46M283.46,283.46M451.09,328.75L360,291.36M283.46,283.46M445.69,345.36L451.09,328.75M283.46,283.46M493.82,268.42L348.36,277.53M283.46,283.46M360,291.36L493.82,268.42M283.46,283.46M360,291.36L360,291.36M283.46,283.46M348.36,277.53L451.09,328.75M283.46,283.46M332.48,326.41L348.36,277.53M283.46,283.46M283.46,283.46M445.69,345.36L350.02,322.06M283.46,283.46M292.2,456.88L445.69,345.36M283.46,283.46M444.8,419.28L332.48,326.41M283.46,283.46M350.02,322.06L444.8,419.28M283.46,283.46M350.02,322.06L350.02,322.06M283.46,283.46M332.48,326.41L445.69,345.36M283.46,283.46M309.16,343.35L332.48,326.41M283.46,283.46M283.46,283.46M292.2,456.88L299.61,358.69M283.46,283.46M274.73,456.88L292.2,456.88M283.46,283.46M362.77,478.88L309.16,343.35M283.46,283.46M299.61,358.69L362.77,478.88M283.46,283.46M299.61,358.69L299.61,358.69M283.46,283.46M309.16,343.35L292.2,456.88M283.46,283.46M257.77,343.35L309.16,343.35M283.46,283.46M283.46,283.46" style="fill:none;stroke:#44788E;stroke-opacity:0.0038911;stroke-width:14.173" />
<path d="M283.46,283.46M283.46,283.46L283.46,425.2M283.46,425.2L283.46,425.2M283.46,283.46M283.46,283.46L283.46,425.2M283.46,425.2L200.16,398.13M283.46,283.46M283.46,283.46L200.16,398.13M200.16,398.13L148.67,327.26M283.46,283.46M283.46,283.46L148.67,327.26M148.67,327.26L148.67,239.67M283.46,283.46M283.46,283.46L148.67,239.67M148.67,239.67L200.16,168.8M283.46,283.46M283.46,283.46L200.16,168.8M200.16,168.8L283.46,141.73M283.46,283.46M283.46,283.46L283.46,141.73M283.46,141.73L366.77,168.8M283.46,283.46M283.46,283.46L366.77,168.8M366.77,168.8L418.26,239.67M283.46,283.46M283.46,283.46L418.26,239.67M418.26,239.67L418.26,327.26M283.46,283.46M283.46,283.46L418.26,327.26M418.26,327.26L366.77,398.13M283.46,283.46M283.46,283.46L366.77,398.13M366.77,398.13L283.46,425.2M283.46,283.46M283.46,283.46M232.94,345.35L240.22,350.64M283.46,283.46M275.69,352.19L240.22,350.64M283.46,283.46M275.69,352.19L289.85,261.26M283.46,283.46M229.9,303.44L281.02,340.59M283.46,283.46M283.51,283.28L285,271.75M283.46,283.46M275.06,321.31L283.51,283.28M283.46,283.46M250.06,303.15L275.06,321.31M283.46,283.46M267.5,314.78L275.69,352.19M283.46,283.46M267.5,314.78L242.14,383.79M283.46,283.46M289.85,261.26L289.85,261.26M283.46,283.46M283.46,283.46M206.21,263.1L232.94,345.35M283.46,283.46M220.5,312.1L232.94,345.35M283.46,283.46M220.5,312.1L302.61,270.53M283.46,283.46M228.38,298.79L229.9,303.44M283.46,283.46M283.62,283.37L294.13,278.38M283.46,283.46M250.06,303.15L283.62,283.37M283.46,283.46M244.87,287.17L250.06,303.15M283.46,283.46M258.62,308.32L220.5,312.1M283.46,283.46M258.62,308.32L200.82,353.77M283.46,283.46M302.61,270.53L302.61,270.53M283.46,283.46M283.46,283.46M208.99,254.53L206.21,263.1M283.46,283.46M215.7,297.31L206.21,263.1M283.46,283.46M215.7,297.31L306.56,282.67M283.46,283.46M247.91,238.69L228.38,298.79M283.46,283.46M283.65,283.45L295.08,281.31M283.46,283.46M244.87,287.17L283.65,283.45M283.46,283.46M254.42,257.78L244.87,287.17M283.46,283.46M248.75,277.96L215.7,297.31M283.46,283.46M248.75,277.96L175.28,275.16M283.46,283.46M306.56,282.67L306.56,282.67M283.46,283.46M283.46,283.46M278.96,203.7L208.99,254.53M283.46,283.46M236.78,232.43L208.99,254.53M283.46,283.46M236.78,232.43L301.68,297.68M283.46,283.46M251.87,235.81L247.91,238.69M283.46,283.46M283.61,283.58L291.6,292.04M283.46,283.46M254.42,257.78L283.61,283.58M283.46,283.46M268.01,247.91L254.42,257.78M283.46,283.46M252.14,267.52L236.78,232.43M283.46,283.46M252.14,267.52L191.06,226.59M283.46,283.46M301.68,297.68L301.68,297.68M283.46,283.46M283.46,283.46M287.97,203.7L278.96,203.7M283.46,283.46M249.36,223.29L278.96,203.7M283.46,283.46M249.36,223.29L291.35,305.18M283.46,283.46M315.06,235.81L251.87,235.81M283.46,283.46M283.53,283.64L289.11,293.85M283.46,283.46M268.01,247.91L283.53,283.64M283.46,283.46M298.92,247.91L268.01,247.91M283.46,283.46M277.98,248.75L249.36,223.29M283.46,283.46M277.98,248.75L257.93,178.01M283.46,283.46M291.35,305.18L291.35,305.18M283.46,283.46M283.46,283.46M357.93,254.53L287.97,203.7M283.46,283.46M317.57,223.29L287.97,203.7M283.46,283.46M317.57,223.29L275.58,305.18M283.46,283.46M319.02,238.69L315.06,235.81M283.46,283.46M283.4,283.64L277.82,293.85M283.46,283.46M298.92,247.91L283.4,283.64M283.46,283.46M312.51,257.78L298.92,247.91M283.46,283.46M288.95,248.75L317.57,223.29M283.46,283.46M288.95,248.75L309,178.01M283.46,283.46M275.58,305.18L275.58,305.18M283.46,283.46M283.46,283.46M360.72,263.1L357.93,254.53M283.46,283.46M330.15,232.43L357.93,254.53M283.46,283.46M330.15,232.43L265.25,297.68M283.46,283.46M338.55,298.79L319.02,238.69M283.46,283.46M283.32,283.58L275.33,292.04M283.46,283.46M312.51,257.78L283.32,283.58M283.46,283.46M322.06,287.17L312.51,257.78M283.46,283.46M314.79,267.52L330.15,232.43M283.46,283.46M314.79,267.52L375.87,226.59M283.46,283.46M265.25,297.68L265.25,297.68M283.46,283.46M283.46,283.46M333.99,345.35L360.72,263.1M283.46,283.46M351.23,297.31L360.72,263.1M283.46,283.46M351.23,297.31L260.37,282.67M283.46,283.46M337.03,303.44L338.55,298.79M283.46,283.46M283.28,283.45L271.84,281.31M283.46,283.46M322.06,287.17L283.28,283.45M283.46,283.46M316.87,303.15L322.06,287.17M283.46,283.46M318.18,277.96L351.23,297.31M283.46,283.46M318.18,277.96L391.65,275.16M283.46,283.46M260.37,282.67L260.37,282.67M283.46,283.46M283.46,283.46M326.71,350.64L333.99,345.35M283.46,283.46M346.43,312.1L333.99,345.35M283.46,283.46M346.43,312.1L264.32,270.53M283.46,283.46M285.91,340.59L337.03,303.44M283.46,283.46M283.31,283.37L272.8,278.38M283.46,283.46M316.87,303.15L283.31,283.37M283.46,283.46M291.87,321.31L316.87,303.15M283.46,283.46M308.31,308.32L346.43,312.1M283.46,283.46M308.31,308.32L366.11,353.77M283.46,283.46M264.32,270.53L264.32,270.53M283.46,283.46M283.46,283.46M240.22,350.64L326.71,350.64M283.46,283.46M291.24,352.19L326.71,350.64M283.46,283.46M291.24,352.19L277.08,261.26M283.46,283.46M281.02,340.59L285.91,340.59M283.46,283.46M283.42,283.28L281.93,271.75M283.46,283.46M291.87,321.31L283.42,283.28M283.46,283.46M275.06,321.31L291.87,321.31M283.46,283.46M299.43,314.78L291.24,352.19M283.46,283.46M299.43,314.78L324.79,383.79M283.46,283.46M277.08,261.26L277.08,261.26M283.46,283.46M283.46,283.46" style="fill:none;stroke:#0F87DA;stroke-opacity:0.0038911;stroke-width:14.173" />
</g>
</svg>
